<svg width="26" height="30" viewBox="0 0 26 30" fill="none" xmlns="http://www.w3.org/2000/svg">
<path fill-rule="evenodd" clip-rule="evenodd" d="M12.9996 0.97998C12.1223 0.97998 11.3596 1.54131 9.83561 2.66531L7.54095 4.35731C7.30095 4.53465 7.18094 4.62265 7.05161 4.69731C6.92228 4.77198 6.78495 4.83065 6.51161 4.95065L3.89961 6.09198C2.16361 6.85198 1.29561 7.23065 0.856944 7.98931C0.419611 8.74931 0.523611 9.69065 0.735611 11.5733L1.05294 14.4066C1.08628 14.7026 1.10228 14.8506 1.10228 15C1.10228 15.1493 1.08628 15.2973 1.05294 15.5933L0.735611 18.4266C0.524945 20.3093 0.419611 21.2506 0.856944 22.0106C1.29694 22.7706 2.16361 23.1493 3.89961 23.908L6.51295 25.0493C6.78495 25.1693 6.92228 25.228 7.05161 25.3026C7.17961 25.3773 7.30095 25.4653 7.54095 25.6426L9.83428 27.3346C11.3609 28.4586 12.1236 29.02 12.9996 29.02C13.8756 29.02 14.6396 28.4586 16.1636 27.3346L18.4583 25.6426C18.6983 25.4653 18.8183 25.3773 18.9476 25.3026C19.0769 25.228 19.2143 25.1693 19.4876 25.0493L22.0996 23.908C23.8356 23.148 24.7036 22.7693 25.1423 22.0106C25.5796 21.2506 25.4756 20.3093 25.2623 18.4266L24.9463 15.5933C24.9129 15.2973 24.8956 15.1493 24.8956 15C24.8956 14.8506 24.9129 14.7026 24.9463 14.4066L25.2636 11.5733C25.4743 9.69065 25.5796 8.74931 25.1423 7.98931C24.7023 7.22931 23.8356 6.85065 22.0996 6.09198L19.4863 4.95065C19.3023 4.87598 19.1225 4.79141 18.9476 4.69731C18.7785 4.59289 18.6151 4.47939 18.4583 4.35731L16.1649 2.66531C14.6369 1.54131 13.8743 0.97998 12.9996 0.97998ZM12.9996 20.3333C14.4141 20.3333 15.7707 19.7714 16.7708 18.7712C17.771 17.771 18.3329 16.4145 18.3329 15C18.3329 13.5855 17.771 12.2289 16.7708 11.2287C15.7707 10.2285 14.4141 9.66665 12.9996 9.66665C11.5851 9.66665 10.2286 10.2285 9.22838 11.2287C8.22818 12.2289 7.66628 13.5855 7.66628 15C7.66628 16.4145 8.22818 17.771 9.22838 18.7712C10.2286 19.7714 11.5851 20.3333 12.9996 20.3333Z" fill="#FAFAFA"/>
</svg>
